<svg width="1012" height="600" viewBox="0 0 1012 600" fill="none" xmlns="http://www.w3.org/2000/svg">
<g clip-path="url(#clip0_342_2823)">
<rect width="1012" height="600" rx="32" fill="url(#paint0_linear_342_2823)"/>
<path d="M-123 629L26.4 602.807L175.8 613.836L146.75 513.2L193.783 460.814L292 436H114.933L43 449.786" stroke="#616161"/>
<circle cx="42.5" cy="449.5" r="5.5" fill="#6B6B6B"/>
<circle cx="193.5" cy="460.5" r="5.5" fill="#6B6B6B"/>
<circle cx="291.5" cy="435.5" r="5.5" fill="#6B6B6B"/>
<circle cx="146.5" cy="513.5" r="5.5" fill="#6B6B6B"/>
<circle cx="114.5" cy="435.5" r="5.5" fill="#6B6B6B"/>
<circle cx="26.5" cy="391.5" r="5.5" fill="#6B6B6B"/>
<circle cx="18.5" cy="317.5" r="5.5" fill="#6B6B6B"/>
<circle cx="205.5" cy="366.5" r="5.5" fill="#6B6B6B"/>
<circle cx="281.5" cy="244.5" r="5.5" fill="#6B6B6B"/>
<circle cx="106.5" cy="366.5" r="5.5" fill="#6B6B6B"/>
<circle cx="143.5" cy="353.5" r="5.5" fill="#6B6B6B"/>
<circle cx="122.5" cy="344.5" r="5.5" fill="#6B6B6B"/>
<circle cx="177.5" cy="284.5" r="5.5" fill="#6B6B6B"/>
<path d="M-228 484L-124.084 448L-18.7831 466L26.9398 391.231L-65.8916 396.769L18.6265 317.846L107.5 367L144 355.5L123 344.5M206 367L347 331.692L281.88 244.462L177.5 285.5L47.7229 196L-113 244.462" stroke="#616161"/>
<path d="M65.052 292.194C63.4 293.846 61.16 294.672 58.332 294.672C55.476 294.672 53.25 293.846 51.654 292.194C50.058 290.542 49.26 288.316 49.26 285.516V283.542H52.704V285.516C52.704 287.448 53.194 288.932 54.174 289.968C55.154 290.976 56.54 291.48 58.332 291.48C60.124 291.48 61.51 290.976 62.49 289.968C63.47 288.932 63.96 287.448 63.96 285.516V264.096H67.488V285.516C67.488 288.344 66.676 290.57 65.052 292.194ZM86.3742 284.592V272.328H89.7342V294H86.5422V290.766C84.8902 293.258 82.6222 294.504 79.7382 294.504C77.3302 294.504 75.4542 293.846 74.1102 292.53C72.7662 291.214 72.0942 289.366 72.0942 286.986V272.328H75.4542V286.65C75.4542 289.87 77.1062 291.48 80.4102 291.48C81.9782 291.48 83.3642 290.892 84.5682 289.716C85.7722 288.54 86.3742 286.832 86.3742 284.592ZM102.42 294.504C96.6239 294.504 93.5579 292.04 93.2219 287.112H96.6239C96.8199 288.736 97.3519 289.898 98.2199 290.598C99.1159 291.27 100.516 291.606 102.42 291.606C105.892 291.606 107.628 290.486 107.628 288.246C107.628 287.266 107.264 286.524 106.536 286.02C105.836 285.516 104.548 285.082 102.672 284.718L100.656 284.34C96.1479 283.5 93.8939 281.372 93.8939 277.956C93.8939 276.08 94.5939 274.596 95.9939 273.504C97.4219 272.384 99.3539 271.824 101.79 271.824C107.53 271.824 110.47 274.218 110.61 279.006H107.25C107.166 277.438 106.69 276.332 105.822 275.688C104.954 275.044 103.61 274.722 101.79 274.722C100.334 274.722 99.2139 275.002 98.4299 275.562C97.6459 276.122 97.2539 276.906 97.2539 277.914C97.2539 278.866 97.5899 279.58 98.2619 280.056C98.9339 280.532 100.054 280.938 101.622 281.274L103.554 281.652C106.214 282.184 108.118 282.94 109.266 283.92C110.442 284.9 111.03 286.272 111.03 288.036C111.03 290.08 110.26 291.676 108.72 292.824C107.208 293.944 105.108 294.504 102.42 294.504ZM123.463 272.328V275.268H119.011V289.338C119.011 290.57 119.837 291.186 121.489 291.186H123.463V294C122.539 294.084 121.741 294.126 121.069 294.126C117.457 294.126 115.651 292.628 115.651 289.632V275.268H112.081V272.328H115.651V266.196H119.011V272.328H123.463ZM151.308 275.436V264.096H154.668V294H151.476V290.64C149.74 293.216 147.262 294.504 144.042 294.504C140.99 294.504 138.554 293.468 136.734 291.396C134.886 289.324 133.962 286.58 133.962 283.164C133.962 279.692 134.886 276.934 136.734 274.89C138.526 272.846 140.962 271.824 144.042 271.824C147.15 271.824 149.572 273.028 151.308 275.436ZM137.49 283.332C137.49 285.908 138.12 287.91 139.38 289.338C140.64 290.766 142.334 291.48 144.462 291.48C146.59 291.48 148.284 290.738 149.544 289.254C150.804 287.798 151.434 285.768 151.434 283.164C151.434 280.588 150.804 278.558 149.544 277.074C148.284 275.59 146.59 274.848 144.462 274.848C142.362 274.848 140.668 275.618 139.38 277.158C138.12 278.67 137.49 280.728 137.49 283.332ZM178.604 283.164V284.34H162.14C162.308 286.692 162.966 288.47 164.114 289.674C165.262 290.85 166.83 291.438 168.818 291.438C171.814 291.438 173.732 290.094 174.572 287.406H178.058C177.47 289.59 176.378 291.326 174.782 292.614C173.186 293.874 171.17 294.504 168.734 294.504C165.738 294.504 163.316 293.482 161.468 291.438C159.592 289.394 158.654 286.636 158.654 283.164C158.654 279.748 159.578 277.004 161.426 274.932C163.246 272.86 165.654 271.824 168.65 271.824C171.758 271.824 174.194 272.902 175.958 275.058C177.722 277.214 178.604 279.916 178.604 283.164ZM168.65 274.89C166.886 274.89 165.444 275.45 164.324 276.57C163.204 277.662 162.504 279.244 162.224 281.316H174.992C174.824 279.412 174.18 277.872 173.06 276.696C171.94 275.492 170.47 274.89 168.65 274.89ZM193.216 271.824C196.268 271.824 198.718 272.846 200.566 274.89C202.386 276.962 203.296 279.72 203.296 283.164C203.296 286.58 202.386 289.324 200.566 291.396C198.718 293.468 196.268 294.504 193.216 294.504C190.108 294.504 187.686 293.3 185.95 290.892V302.232H182.59V272.328H185.782V275.688C187.518 273.112 189.996 271.824 193.216 271.824ZM192.796 291.48C194.896 291.48 196.576 290.724 197.836 289.212C199.124 287.672 199.768 285.6 199.768 282.996C199.768 280.448 199.138 278.46 197.878 277.032C196.646 275.576 194.952 274.848 192.796 274.848C190.668 274.848 188.974 275.576 187.714 277.032C186.454 278.488 185.824 280.532 185.824 283.164C185.824 285.768 186.454 287.798 187.714 289.254C188.974 290.738 190.668 291.48 192.796 291.48ZM210.642 294H207.282V264.096H210.642V294ZM232.7 291.396C230.712 293.468 228.192 294.504 225.14 294.504C222.088 294.504 219.568 293.468 217.58 291.396C215.62 289.352 214.64 286.608 214.64 283.164C214.64 279.72 215.62 276.976 217.58 274.932C219.568 272.86 222.088 271.824 225.14 271.824C228.192 271.824 230.712 272.86 232.7 274.932C234.66 276.976 235.64 279.72 235.64 283.164C235.64 286.608 234.66 289.352 232.7 291.396ZM220.058 289.254C221.318 290.738 223.012 291.48 225.14 291.48C227.268 291.48 228.962 290.738 230.222 289.254C231.482 287.798 232.112 285.768 232.112 283.164C232.112 280.532 231.482 278.488 230.222 277.032C228.962 275.576 227.268 274.848 225.14 274.848C223.012 274.848 221.318 275.576 220.058 277.032C218.798 278.488 218.168 280.532 218.168 283.164C218.168 285.768 218.798 287.798 220.058 289.254ZM249.04 281.316L252.106 272.328H255.76L246.604 297.402C245.96 299.222 245.078 300.496 243.958 301.224C242.838 301.98 241.368 302.358 239.548 302.358C238.932 302.358 238.26 302.316 237.532 302.232V299.418H239.506C241.438 299.418 242.754 298.522 243.454 296.73L244.21 294.714L236.062 272.328H239.758L242.824 281.358C243.916 284.55 244.952 287.672 245.932 290.724C246.744 288.12 247.78 284.984 249.04 281.316ZM276.098 283.164V284.34H259.634C259.802 286.692 260.46 288.47 261.608 289.674C262.756 290.85 264.324 291.438 266.312 291.438C269.308 291.438 271.226 290.094 272.066 287.406H275.552C274.964 289.59 273.872 291.326 272.276 292.614C270.68 293.874 268.664 294.504 266.228 294.504C263.232 294.504 260.81 293.482 258.962 291.438C257.086 289.394 256.148 286.636 256.148 283.164C256.148 279.748 257.072 277.004 258.92 274.932C260.74 272.86 263.148 271.824 266.144 271.824C269.252 271.824 271.688 272.902 273.452 275.058C275.216 277.214 276.098 279.916 276.098 283.164ZM266.144 274.89C264.38 274.89 262.938 275.45 261.818 276.57C260.698 277.662 259.998 279.244 259.718 281.316H272.486C272.318 279.412 271.674 277.872 270.554 276.696C269.434 275.492 267.964 274.89 266.144 274.89ZM296.38 275.436V264.096H299.74V294H296.548V290.64C294.812 293.216 292.334 294.504 289.114 294.504C286.062 294.504 283.626 293.468 281.806 291.396C279.958 289.324 279.034 286.58 279.034 283.164C279.034 279.692 279.958 276.934 281.806 274.89C283.598 272.846 286.034 271.824 289.114 271.824C292.222 271.824 294.644 273.028 296.38 275.436ZM282.562 283.332C282.562 285.908 283.192 287.91 284.452 289.338C285.712 290.766 287.406 291.48 289.534 291.48C291.662 291.48 293.356 290.738 294.616 289.254C295.876 287.798 296.506 285.768 296.506 283.164C296.506 280.588 295.876 278.558 294.616 277.074C293.356 275.59 291.662 274.848 289.534 274.848C287.434 274.848 285.74 275.618 284.452 277.158C283.192 278.67 282.562 280.728 282.562 283.332ZM330.498 291.27H331.716V294C331.156 294.084 330.54 294.126 329.868 294.126C327.6 294.126 326.382 293.09 326.214 291.018C324.702 293.342 322.35 294.504 319.158 294.504C316.778 294.504 314.902 293.958 313.53 292.866C312.186 291.746 311.514 290.178 311.514 288.162C311.514 284.242 314.188 282.002 319.536 281.442L322.644 281.106C324.912 280.854 326.046 279.86 326.046 278.124C326.046 276.92 325.668 276.052 324.912 275.52C324.184 274.988 322.938 274.722 321.174 274.722C319.298 274.722 317.94 275.044 317.1 275.688C316.288 276.304 315.826 277.41 315.714 279.006H312.354C312.634 274.218 315.574 271.824 321.174 271.824C326.606 271.824 329.322 273.924 329.322 278.124V290.22C329.322 290.92 329.714 291.27 330.498 291.27ZM319.326 291.648C321.118 291.648 322.686 291.102 324.03 290.01C325.374 288.946 326.046 287.42 326.046 285.432V282.87C325.43 283.346 324.478 283.654 323.19 283.794L320.04 284.172C318.22 284.396 316.918 284.816 316.134 285.432C315.378 286.048 315 286.93 315 288.078C315 289.198 315.364 290.08 316.092 290.724C316.82 291.34 317.898 291.648 319.326 291.648ZM353.846 294.672C349.954 294.672 346.916 293.79 344.732 292.026C342.548 290.262 341.442 287.63 341.414 284.13H345.068C345.152 289.03 348.078 291.48 353.846 291.48C356.282 291.48 358.144 291.004 359.432 290.052C360.748 289.1 361.406 287.714 361.406 285.894C361.406 284.466 360.86 283.36 359.768 282.576C358.704 281.764 356.828 281.064 354.14 280.476L351.494 279.888C348.47 279.188 346.202 278.18 344.69 276.864C343.178 275.52 342.422 273.644 342.422 271.236C342.422 268.856 343.346 266.966 345.194 265.566C347.042 264.138 349.52 263.424 352.628 263.424C354.728 263.424 356.548 263.676 358.088 264.18C359.656 264.684 360.874 265.398 361.742 266.322C362.61 267.218 363.24 268.198 363.632 269.262C364.052 270.326 364.276 271.502 364.304 272.79H360.692C360.524 270.662 359.824 269.108 358.592 268.128C357.388 267.12 355.4 266.616 352.628 266.616C350.528 266.616 348.904 267.022 347.756 267.834C346.636 268.646 346.076 269.78 346.076 271.236C346.076 272.692 346.566 273.826 347.546 274.638C348.498 275.45 350.346 276.164 353.09 276.78L355.736 277.368C359.04 278.096 361.42 279.146 362.876 280.518C364.332 281.862 365.06 283.654 365.06 285.894C365.06 288.61 364.066 290.752 362.078 292.32C360.09 293.888 357.346 294.672 353.846 294.672ZM378.633 271.824C381.041 271.824 382.917 272.482 384.261 273.798C385.605 275.114 386.277 276.962 386.277 279.342V294H382.917V279.678C382.917 276.458 381.265 274.848 377.961 274.848C376.393 274.848 375.007 275.436 373.803 276.612C372.599 277.788 371.997 279.496 371.997 281.736V294H368.637V264.096H371.997V275.31C373.649 272.986 375.861 271.824 378.633 271.824ZM409.043 291.27H410.261V294C409.701 294.084 409.085 294.126 408.413 294.126C406.145 294.126 404.927 293.09 404.759 291.018C403.247 293.342 400.895 294.504 397.703 294.504C395.323 294.504 393.447 293.958 392.075 292.866C390.731 291.746 390.059 290.178 390.059 288.162C390.059 284.242 392.733 282.002 398.081 281.442L401.189 281.106C403.457 280.854 404.591 279.86 404.591 278.124C404.591 276.92 404.213 276.052 403.457 275.52C402.729 274.988 401.483 274.722 399.719 274.722C397.843 274.722 396.485 275.044 395.645 275.688C394.833 276.304 394.371 277.41 394.259 279.006H390.899C391.179 274.218 394.119 271.824 399.719 271.824C405.151 271.824 407.867 273.924 407.867 278.124V290.22C407.867 290.92 408.259 291.27 409.043 291.27ZM397.871 291.648C399.663 291.648 401.231 291.102 402.575 290.01C403.919 288.946 404.591 287.42 404.591 285.432V282.87C403.975 283.346 403.023 283.654 401.735 283.794L398.585 284.172C396.765 284.396 395.463 284.816 394.679 285.432C393.923 286.048 393.545 286.93 393.545 288.078C393.545 289.198 393.909 290.08 394.637 290.724C395.365 291.34 396.443 291.648 397.871 291.648ZM423.385 271.992C423.945 271.992 424.323 272.006 424.519 272.034V275.268H423.679C421.439 275.268 419.689 275.828 418.429 276.948C417.197 278.04 416.581 279.608 416.581 281.652V294H413.221V272.328H416.413V276.15C417.869 273.378 420.193 271.992 423.385 271.992ZM442.683 275.436V264.096H446.043V294H442.851V290.64C441.115 293.216 438.637 294.504 435.417 294.504C432.365 294.504 429.929 293.468 428.109 291.396C426.261 289.324 425.337 286.58 425.337 283.164C425.337 279.692 426.261 276.934 428.109 274.89C429.901 272.846 432.337 271.824 435.417 271.824C438.525 271.824 440.947 273.028 442.683 275.436ZM428.865 283.332C428.865 285.908 429.495 287.91 430.755 289.338C432.015 290.766 433.709 291.48 435.837 291.48C437.965 291.48 439.659 290.738 440.919 289.254C442.179 287.798 442.809 285.768 442.809 283.164C442.809 280.588 442.179 278.558 440.919 277.074C439.659 275.59 437.965 274.848 435.837 274.848C433.737 274.848 432.043 275.618 430.755 277.158C429.495 278.67 428.865 280.728 428.865 283.332ZM469.979 283.164V284.34H453.515C453.683 286.692 454.341 288.47 455.489 289.674C456.637 290.85 458.205 291.438 460.193 291.438C463.189 291.438 465.107 290.094 465.947 287.406H469.433C468.845 289.59 467.753 291.326 466.157 292.614C464.561 293.874 462.545 294.504 460.109 294.504C457.113 294.504 454.691 293.482 452.843 291.438C450.967 289.394 450.029 286.636 450.029 283.164C450.029 279.748 450.953 277.004 452.801 274.932C454.621 272.86 457.029 271.824 460.025 271.824C463.133 271.824 465.569 272.902 467.333 275.058C469.097 277.214 469.979 279.916 469.979 283.164ZM460.025 274.89C458.261 274.89 456.819 275.45 455.699 276.57C454.579 277.662 453.879 279.244 453.599 281.316H466.367C466.199 279.412 465.555 277.872 464.435 276.696C463.315 275.492 461.845 274.89 460.025 274.89ZM487.63 284.592V272.328H490.99V294H487.798V290.766C486.146 293.258 483.878 294.504 480.994 294.504C478.586 294.504 476.71 293.846 475.366 292.53C474.022 291.214 473.35 289.366 473.35 286.986V272.328H476.71V286.65C476.71 289.87 478.362 291.48 481.666 291.48C483.234 291.48 484.62 290.892 485.824 289.716C487.028 288.54 487.63 286.832 487.63 284.592ZM518.838 271.824C521.19 271.824 523.01 272.51 524.298 273.882C525.614 275.226 526.272 277.032 526.272 279.3V294H522.912V279.636C522.912 276.444 521.4 274.848 518.376 274.848C516.78 274.848 515.45 275.492 514.386 276.78C513.35 278.04 512.832 279.832 512.832 282.156V294H509.472V279.636C509.472 276.444 507.96 274.848 504.936 274.848C503.368 274.848 502.052 275.492 500.988 276.78C499.924 278.04 499.392 279.832 499.392 282.156V294H496.032V272.328H499.224V275.52C500.652 273.056 502.738 271.824 505.482 271.824C508.73 271.824 510.956 273.182 512.16 275.898C513.672 273.182 515.898 271.824 518.838 271.824ZM60.516 333.824C62.924 333.824 64.8 334.482 66.144 335.798C67.488 337.114 68.16 338.962 68.16 341.342V356H64.8V341.678C64.8 338.458 63.148 336.848 59.844 336.848C58.276 336.848 56.89 337.436 55.686 338.612C54.482 339.788 53.88 341.496 53.88 343.736V356H50.52V334.328H53.712V337.562C55.364 335.07 57.632 333.824 60.516 333.824ZM90.2116 353.396C88.2236 355.468 85.7036 356.504 82.6516 356.504C79.5996 356.504 77.0796 355.468 75.0916 353.396C73.1316 351.352 72.1516 348.608 72.1516 345.164C72.1516 341.72 73.1316 338.976 75.0916 336.932C77.0796 334.86 79.5996 333.824 82.6516 333.824C85.7036 333.824 88.2236 334.86 90.2116 336.932C92.1716 338.976 93.1516 341.72 93.1516 345.164C93.1516 348.608 92.1716 351.352 90.2116 353.396ZM77.5696 351.254C78.8296 352.738 80.5236 353.48 82.6516 353.48C84.7796 353.48 86.4736 352.738 87.7336 351.254C88.9936 349.798 89.6236 347.768 89.6236 345.164C89.6236 342.532 88.9936 340.488 87.7336 339.032C86.4736 337.576 84.7796 336.848 82.6516 336.848C80.5236 336.848 78.8296 337.576 77.5696 339.032C76.3096 340.488 75.6796 342.532 75.6796 345.164C75.6796 347.768 76.3096 349.798 77.5696 351.254ZM113.451 337.436V326.096H116.811V356H113.619V352.64C111.883 355.216 109.405 356.504 106.185 356.504C103.133 356.504 100.697 355.468 98.8768 353.396C97.0288 351.324 96.1048 348.58 96.1048 345.164C96.1048 341.692 97.0288 338.934 98.8768 336.89C100.669 334.846 103.105 333.824 106.185 333.824C109.293 333.824 111.715 335.028 113.451 337.436ZM99.6328 345.332C99.6328 347.908 100.263 349.91 101.523 351.338C102.783 352.766 104.477 353.48 106.605 353.48C108.733 353.48 110.427 352.738 111.687 351.254C112.947 349.798 113.577 347.768 113.577 345.164C113.577 342.588 112.947 340.558 111.687 339.074C110.427 337.59 108.733 336.848 106.605 336.848C104.505 336.848 102.811 337.618 101.523 339.158C100.263 340.67 99.6328 342.728 99.6328 345.332ZM140.746 345.164V346.34H124.282C124.45 348.692 125.108 350.47 126.256 351.674C127.404 352.85 128.972 353.438 130.96 353.438C133.956 353.438 135.874 352.094 136.714 349.406H140.2C139.612 351.59 138.52 353.326 136.924 354.614C135.328 355.874 133.312 356.504 130.876 356.504C127.88 356.504 125.458 355.482 123.61 353.438C121.734 351.394 120.796 348.636 120.796 345.164C120.796 341.748 121.72 339.004 123.568 336.932C125.388 334.86 127.796 333.824 130.792 333.824C133.9 333.824 136.336 334.902 138.1 337.058C139.864 339.214 140.746 341.916 140.746 345.164ZM130.792 336.89C129.028 336.89 127.586 337.45 126.466 338.57C125.346 339.662 124.646 341.244 124.366 343.316H137.134C136.966 341.412 136.322 339.872 135.202 338.696C134.082 337.492 132.612 336.89 130.792 336.89ZM156.175 331.052H152.605V326.936H156.175V331.052ZM156.091 356H152.731V334.328H156.091V356ZM171.135 333.824C173.543 333.824 175.419 334.482 176.763 335.798C178.107 337.114 178.779 338.962 178.779 341.342V356H175.419V341.678C175.419 338.458 173.767 336.848 170.463 336.848C168.895 336.848 167.509 337.436 166.305 338.612C165.101 339.788 164.499 341.496 164.499 343.736V356H161.139V334.328H164.331V337.562C165.983 335.07 168.251 333.824 171.135 333.824ZM208.829 353.396C206.841 355.468 204.321 356.504 201.269 356.504C198.217 356.504 195.697 355.468 193.709 353.396C191.749 351.352 190.769 348.608 190.769 345.164C190.769 341.72 191.749 338.976 193.709 336.932C195.697 334.86 198.217 333.824 201.269 333.824C204.321 333.824 206.841 334.86 208.829 336.932C210.789 338.976 211.769 341.72 211.769 345.164C211.769 348.608 210.789 351.352 208.829 353.396ZM196.187 351.254C197.447 352.738 199.141 353.48 201.269 353.48C203.397 353.48 205.091 352.738 206.351 351.254C207.611 349.798 208.241 347.768 208.241 345.164C208.241 342.532 207.611 340.488 206.351 339.032C205.091 337.576 203.397 336.848 201.269 336.848C199.141 336.848 197.447 337.576 196.187 339.032C194.927 340.488 194.297 342.532 194.297 345.164C194.297 347.768 194.927 349.798 196.187 351.254ZM225.768 333.824C228.176 333.824 230.052 334.482 231.396 335.798C232.74 337.114 233.412 338.962 233.412 341.342V356H230.052V341.678C230.052 338.458 228.4 336.848 225.096 336.848C223.528 336.848 222.142 337.436 220.938 338.612C219.734 339.788 219.132 341.496 219.132 343.736V356H215.772V334.328H218.964V337.562C220.616 335.07 222.884 333.824 225.768 333.824ZM257.354 345.164V346.34H240.89C241.058 348.692 241.716 350.47 242.864 351.674C244.012 352.85 245.58 353.438 247.568 353.438C250.564 353.438 252.482 352.094 253.322 349.406H256.808C256.22 351.59 255.128 353.326 253.532 354.614C251.936 355.874 249.92 356.504 247.484 356.504C244.488 356.504 242.066 355.482 240.218 353.438C238.342 351.394 237.404 348.636 237.404 345.164C237.404 341.748 238.328 339.004 240.176 336.932C241.996 334.86 244.404 333.824 247.4 333.824C250.508 333.824 252.944 334.902 254.708 337.058C256.472 339.214 257.354 341.916 257.354 345.164ZM247.4 336.89C245.636 336.89 244.194 337.45 243.074 338.57C241.954 339.662 241.254 341.244 240.974 343.316H253.742C253.574 341.412 252.93 339.872 251.81 338.696C250.69 337.492 249.22 336.89 247.4 336.89ZM278.326 356.504C275.33 356.504 272.908 355.468 271.06 353.396C269.212 351.324 268.288 348.58 268.288 345.164C268.288 341.692 269.212 338.934 271.06 336.89C272.852 334.846 275.274 333.824 278.326 333.824C280.902 333.824 283.016 334.524 284.668 335.924C286.32 337.324 287.314 339.242 287.65 341.678H284.164C283.912 340.138 283.24 338.948 282.148 338.108C281.084 337.268 279.81 336.848 278.326 336.848C276.338 336.848 274.756 337.576 273.58 339.032C272.404 340.46 271.816 342.504 271.816 345.164C271.816 347.796 272.404 349.84 273.58 351.296C274.784 352.752 276.366 353.48 278.326 353.48C279.81 353.48 281.098 353.046 282.19 352.178C283.282 351.31 283.954 350.106 284.206 348.566H287.65C287.286 351.002 286.25 352.934 284.542 354.362C282.862 355.79 280.79 356.504 278.326 356.504ZM294.601 356H291.241V326.096H294.601V356ZM303.093 331.052H299.523V326.936H303.093V331.052ZM303.009 356H299.649V334.328H303.009V356ZM317.045 356.504C314.049 356.504 311.627 355.468 309.779 353.396C307.931 351.324 307.007 348.58 307.007 345.164C307.007 341.692 307.931 338.934 309.779 336.89C311.571 334.846 313.993 333.824 317.045 333.824C319.621 333.824 321.735 334.524 323.387 335.924C325.039 337.324 326.033 339.242 326.369 341.678H322.883C322.631 340.138 321.959 338.948 320.867 338.108C319.803 337.268 318.529 336.848 317.045 336.848C315.057 336.848 313.475 337.576 312.299 339.032C311.123 340.46 310.535 342.504 310.535 345.164C310.535 347.796 311.123 349.84 312.299 351.296C313.503 352.752 315.085 353.48 317.045 353.48C318.529 353.48 319.817 353.046 320.909 352.178C322.001 351.31 322.673 350.106 322.925 348.566H326.369C326.005 351.002 324.969 352.934 323.261 354.362C321.581 355.79 319.509 356.504 317.045 356.504ZM348.397 356H344.491L337.183 344.366L333.319 347.978V356H329.959V326.096H333.319V344.03L343.357 334.328H347.809L339.577 342.14L348.397 356ZM382.39 344.114L385.456 334.328H389.068L381.844 356H378.316L375.124 345.962C374.032 342.406 373.304 339.956 372.94 338.612C372.296 340.908 371.554 343.358 370.714 345.962L367.564 356H364.036L356.812 334.328H360.424L363.49 344.114C364.246 346.494 365.03 349.126 365.842 352.01C366.738 348.818 367.508 346.186 368.152 344.114L371.176 334.328H374.704L377.728 344.114C379.268 349.238 380.052 351.842 380.08 351.926C380.304 351.058 381.074 348.454 382.39 344.114ZM418.499 342.602L425.177 326.096H429.797V356H426.353V346.424C426.353 340.124 426.395 335.042 426.479 331.178C425.807 333.026 424.925 335.294 423.833 337.982L416.441 356H413.417L405.983 337.982C404.891 335.294 404.009 333.026 403.337 331.178C403.421 335.042 403.463 340.124 403.463 346.424V356H400.019V326.096H404.639L411.569 343.106C412.605 345.654 413.739 348.524 414.971 351.716C416.679 347.18 417.855 344.142 418.499 342.602ZM438.28 331.052H434.71V326.936H438.28V331.052ZM438.196 356H434.836V334.328H438.196V356ZM453.241 333.824C455.649 333.824 457.525 334.482 458.869 335.798C460.213 337.114 460.885 338.962 460.885 341.342V356H457.525V341.678C457.525 338.458 455.873 336.848 452.569 336.848C451.001 336.848 449.615 337.436 448.411 338.612C447.207 339.788 446.605 341.496 446.605 343.736V356H443.245V334.328H446.437V337.562C448.089 335.07 450.357 333.824 453.241 333.824ZM474.598 334.328V337.268H470.146V351.338C470.146 352.57 470.972 353.186 472.624 353.186H474.598V356C473.674 356.084 472.876 356.126 472.204 356.126C468.592 356.126 466.786 354.628 466.786 351.632V337.268H463.216V334.328H466.786V328.196H470.146V334.328H474.598ZM495.668 353.27H496.886V356C496.326 356.084 495.71 356.126 495.038 356.126C492.77 356.126 491.552 355.09 491.384 353.018C489.872 355.342 487.52 356.504 484.328 356.504C481.948 356.504 480.072 355.958 478.7 354.866C477.356 353.746 476.684 352.178 476.684 350.162C476.684 346.242 479.358 344.002 484.706 343.442L487.814 343.106C490.082 342.854 491.216 341.86 491.216 340.124C491.216 338.92 490.838 338.052 490.082 337.52C489.354 336.988 488.108 336.722 486.344 336.722C484.468 336.722 483.11 337.044 482.27 337.688C481.458 338.304 480.996 339.41 480.884 341.006H477.524C477.804 336.218 480.744 333.824 486.344 333.824C491.776 333.824 494.492 335.924 494.492 340.124V352.22C494.492 352.92 494.884 353.27 495.668 353.27ZM484.496 353.648C486.288 353.648 487.856 353.102 489.2 352.01C490.544 350.946 491.216 349.42 491.216 347.432V344.87C490.6 345.346 489.648 345.654 488.36 345.794L485.21 346.172C483.39 346.396 482.088 346.816 481.304 347.432C480.548 348.048 480.17 348.93 480.17 350.078C480.17 351.198 480.534 352.08 481.262 352.724C481.99 353.34 483.068 353.648 484.496 353.648ZM503.085 331.052H499.515V326.936H503.085V331.052ZM503.001 356H499.641V334.328H503.001V356ZM518.213 333.992C518.773 333.992 519.151 334.006 519.347 334.034V337.268H518.507C516.267 337.268 514.517 337.828 513.257 338.948C512.025 340.04 511.409 341.608 511.409 343.652V356H508.049V334.328H511.241V338.15C512.697 335.378 515.021 333.992 518.213 333.992Z" fill="#EAEAEA"/>
<path d="M634 75.1993C634 75.9384 634.368 76.629 634.981 77.0413L640.142 80.51V56.419L652.683 64.255L665.223 56.419V80.51L670.384 77.0413C670.997 76.629 671.365 75.9384 671.365 75.1993V53.3631C671.365 52.5953 670.968 51.882 670.316 51.4772L665.862 48.7143C665.156 48.2757 664.263 48.2693 663.55 48.6976L653.825 54.5381C653.122 54.9605 652.243 54.9605 651.54 54.5381L641.816 48.6976C641.102 48.2693 640.21 48.2757 639.503 48.7143L635.049 51.4772C634.397 51.882 634 52.5953 634 53.3631V75.1993Z" fill="white"/>
<path d="M645.261 76.1625C645.261 76.9392 644.855 77.6594 644.19 78.0615L640.142 80.51V56.419L652.683 64.255L665.223 56.419V80.51L661.044 77.5609C660.455 77.1451 660.105 76.4689 660.105 75.7476V67.0932L652.683 71.7375L645.261 67.0932V76.1625Z" fill="#555555"/>
<path d="M677.808 74.008V54.502H682.174V74.008H677.808Z" fill="white"/>
<path d="M686.08 74.008V54.502H690.446L699.383 67.3202V54.502H703.749V64.255V74.008H699.383L690.446 61.2455V74.008H686.08Z" fill="white"/>
<path d="M712.372 74.008V57.8737H706.463V54.502H722.648V57.8737H716.738V74.008H712.372Z" fill="white"/>
<path d="M721.895 74.008L729.317 54.502H734.324L741.747 74.008H737.119L731.792 59.2113L726.465 74.008H721.895ZM725.126 69.7445L726.29 66.5121H736.973L738.109 69.7445H725.126Z" fill="white"/>
<path d="M744.27 74.008V54.502H748.637V74.008H744.27Z" fill="white"/>
<path d="M752.543 74.008V54.502H760.46C762.11 54.502 763.478 54.7806 764.565 55.3379C765.671 55.8767 766.486 56.6012 767.01 57.5115C767.553 58.4217 767.825 59.4342 767.825 60.5488C767.825 61.5891 767.563 62.5644 767.039 63.4747C766.535 64.385 765.739 65.1188 764.652 65.6761C763.565 66.2334 762.159 66.5121 760.431 66.5121H756.909V74.008H752.543ZM763.051 74.008L758.947 65.481H763.633L768 74.008H763.051ZM756.909 63.5026H760.198C761.285 63.5026 762.081 63.2518 762.585 62.7502C763.109 62.2486 763.371 61.5706 763.371 60.716C763.371 59.88 763.109 59.2205 762.585 58.7375C762.081 58.236 761.285 57.9852 760.198 57.9852H756.909V63.5026Z" fill="white"/>
<line x1="789" y1="55" x2="789" y2="73" stroke="white" stroke-width="2"/>
<line x1="795.364" y1="57.6358" x2="782.636" y2="70.3637" stroke="white" stroke-width="2"/>
<line x1="798" y1="64" x2="780" y2="64" stroke="white" stroke-width="2"/>
<line x1="795.364" y1="70.3638" x2="782.636" y2="57.6359" stroke="white" stroke-width="2"/>
<path d="M861.683 53.9272C865.49 53.9272 867.947 56.0591 868.168 59.5175H865.435C865.297 57.5241 863.889 56.3613 861.655 56.3613C859.143 56.3613 857.515 57.6349 857.515 59.5914C857.515 61.2064 858.435 62.1662 860.303 62.6092L863.585 63.3844C866.843 64.1319 868.499 65.9038 868.499 68.7278C868.499 72.327 865.711 74.625 861.462 74.625C857.404 74.625 854.699 72.4931 854.533 69.06H857.294C857.349 70.9704 858.95 72.1886 861.462 72.1886C864.11 72.1886 865.794 70.9427 865.794 68.9585C865.794 67.3804 864.938 66.3837 863.033 65.9407L859.748 65.1932C856.491 64.4457 854.807 62.563 854.807 59.6837C854.809 56.2529 857.57 53.9272 861.683 53.9272Z" fill="white"/>
<path d="M871.456 74.2789V53.9272H874.051V62.8399C874.907 61.3725 876.533 60.3758 878.631 60.3758C882.082 60.3758 883.738 62.563 883.738 66.0238V74.302H881.143V66.6052C881.143 63.8643 879.846 62.7568 877.923 62.7568C875.411 62.7568 874.06 64.5841 874.06 66.9098V74.2789H871.456Z" fill="white"/>
<path d="M900.19 60.7636V74.3021H897.816L897.586 71.8381C896.666 73.5823 894.936 74.662 892.7 74.662C888.727 74.662 886.436 71.5612 886.436 67.436C886.436 63.3107 888.92 60.376 892.782 60.376C894.853 60.376 896.813 61.3173 897.696 63.2553L897.889 60.7636H900.19ZM893.289 62.757C890.641 62.757 889.067 64.7504 889.067 67.5467C889.067 70.343 890.611 72.3087 893.261 72.3087C895.911 72.3087 897.54 70.343 897.54 67.5467C897.54 64.7504 895.939 62.757 893.289 62.757Z" fill="white"/>
<path d="M911.675 63.0339H910.524C908.067 63.0339 906.549 64.529 906.549 67.1315V74.3022H903.94V60.7914H906.37L906.535 62.8401C907.087 61.4281 908.44 60.4868 910.29 60.4868C910.754 60.4906 911.217 60.5464 911.67 60.6529L911.675 63.0339Z" fill="white"/>
<path d="M912.725 67.5742C912.725 63.4213 915.124 60.3758 919.127 60.3758C921.197 60.3758 922.936 61.2987 923.847 62.9506V53.9272H926.415V74.302H924.096L923.866 71.8379C922.982 73.6836 921.16 74.6342 919.007 74.6342C915.096 74.6342 912.725 71.6995 912.725 67.5742ZM923.82 67.4912C923.82 64.7225 922.191 62.7291 919.541 62.7291C916.891 62.7291 915.345 64.7225 915.345 67.4912C915.345 70.2598 916.891 72.2809 919.541 72.2809C922.191 72.2809 923.82 70.3152 923.82 67.4912Z" fill="white"/>
<path d="M929.287 67.5467C929.287 63.3107 931.965 60.376 935.885 60.376C939.722 60.376 942.234 63.0339 942.234 67.0483V68.0174L931.799 68.0497C931.992 70.9013 933.483 72.4795 936.05 72.4795C938.066 72.4795 939.391 71.6489 939.832 70.0984H942.262C941.599 73.0055 939.335 74.639 935.995 74.639C932.02 74.6344 929.287 71.755 929.287 67.5467ZM931.854 66.3008H939.639C939.639 64.0582 938.176 62.5632 935.885 62.5632C933.594 62.5632 932.186 63.9198 931.854 66.3008Z" fill="white"/>
<path d="M957.03 60.7636V74.3022H954.711L954.435 72.2534C953.662 73.6654 951.868 74.6344 949.881 74.6344C946.734 74.6344 944.967 72.5026 944.967 69.1802V60.7636H947.562V68.3219C947.562 71.229 948.804 72.3364 950.782 72.3364C953.156 72.3364 954.463 70.8137 954.463 67.9067V60.7544L957.03 60.7636Z" fill="white"/>
<path d="M960.783 74.3021V60.7636H963.102L963.351 62.5355C964.041 61.2619 965.476 60.376 967.381 60.376C969.479 60.376 970.97 61.4281 971.66 63.1169C972.295 61.4281 973.923 60.376 976.031 60.376C979.122 60.376 981 62.314 981 65.4518V74.3114H978.469V66.0793C978.469 63.9475 977.282 62.7293 975.46 62.7293C973.5 62.7293 972.203 64.1136 972.203 66.2731V74.3021H969.617V66.0516C969.617 63.9198 968.467 62.757 966.626 62.757C964.666 62.757 963.369 64.1136 963.369 66.2731V74.3021H960.783Z" fill="white"/>
<path d="M818.5 73.125L814.251 80.508H843.177L838.928 73.125H818.5Z" fill="white"/>
<path d="M828.714 55.383L824.465 48L810 73.1252H818.5L828.714 55.383Z" fill="white"/>
<path d="M838.928 73.1252H847.428L832.963 48L828.714 55.383L838.928 73.1252Z" fill="white"/>
<path d="M828.714 71.8562C831.255 71.8562 833.315 69.7902 833.315 67.2418C833.315 64.6934 831.255 62.6274 828.714 62.6274C826.173 62.6274 824.113 64.6934 824.113 67.2418C824.113 69.7902 826.173 71.8562 828.714 71.8562Z" fill="white"/>
<rect x="823" y="477.521" width="228" height="71" rx="35.5" transform="rotate(-56.68 823 477.521)" fill="white" fill-opacity="0.2"/>
<path d="M878.02 471.194L877.239 472.382L874.77 469.682L873.821 471.126L872.662 470.365L873.76 468.695L872.221 466.973L871.193 468.537L870.02 467.766L871.206 465.961L868.692 463.231L869.473 462.043L871.987 464.773L873.025 463.193L870.522 460.449L871.303 459.261L873.807 462.005L874.766 460.546L875.939 461.317L874.822 463.017L876.37 464.724L877.408 463.145L878.567 463.906L877.37 465.726L879.849 468.411L879.068 469.6L876.599 466.9L875.551 468.494L878.02 471.194ZM873.002 465.785L874.541 467.507L875.589 465.913L874.05 464.19L873.002 465.785ZM886.81 458.314C886.295 459.096 885.677 459.731 884.955 460.218C884.229 460.689 883.445 461.007 882.604 461.172C881.77 461.327 880.92 461.321 880.053 461.154C879.183 460.97 878.352 460.617 877.56 460.096C876.768 459.576 876.12 458.956 875.616 458.237C875.119 457.508 874.781 456.733 874.603 455.912C874.421 455.074 874.407 454.232 874.561 453.386C874.712 452.523 875.045 451.7 875.559 450.918C876.073 450.136 876.693 449.51 877.419 449.039C878.141 448.552 878.92 448.231 879.754 448.076C880.585 447.904 881.43 447.907 882.29 448.084C883.157 448.252 883.986 448.596 884.778 449.116C885.57 449.637 886.22 450.265 886.727 451.001C887.231 451.72 887.574 452.498 887.756 453.336C887.944 454.163 887.963 455.009 887.812 455.872C887.658 456.718 887.324 457.532 886.81 458.314ZM885.32 457.335C885.696 456.764 885.93 456.178 886.023 455.579C886.116 454.979 886.08 454.388 885.917 453.807C885.76 453.216 885.487 452.67 885.097 452.17C884.705 451.653 884.222 451.207 883.651 450.831C883.079 450.455 882.484 450.193 881.864 450.044C881.25 449.885 880.646 449.854 880.051 449.951C879.452 450.031 878.896 450.233 878.382 450.556C877.868 450.878 877.424 451.326 877.048 451.897C876.672 452.469 876.438 453.054 876.345 453.654C876.253 454.254 876.285 454.849 876.442 455.441C876.595 456.016 876.863 456.558 877.246 457.068C877.635 457.568 878.116 458.006 878.687 458.382C879.259 458.757 879.856 459.028 880.48 459.194C881.1 459.343 881.709 459.377 882.308 459.297C882.913 459.206 883.472 459 883.986 458.677C884.5 458.354 884.945 457.907 885.32 457.335ZM887.74 446.61L892.237 449.566L891.239 451.085L883.267 445.845L884.196 444.431L885.52 445.301C885.257 444.74 885.131 444.155 885.144 443.546C885.163 442.927 885.354 442.342 885.717 441.79C886.257 440.968 886.945 440.479 887.779 440.324C888.62 440.159 889.517 440.389 890.47 441.016L895.629 444.407L894.63 445.926L889.982 442.871C889.301 442.423 888.678 442.222 888.116 442.269C887.554 442.316 887.085 442.625 886.709 443.197C886.479 443.548 886.363 443.931 886.362 444.347C886.352 444.757 886.461 445.159 886.69 445.553C886.919 445.948 887.269 446.3 887.74 446.61ZM899.261 439.21C898.753 439.982 898.138 440.546 897.415 440.904C896.688 441.245 895.903 441.368 895.061 441.274C894.218 441.179 893.38 440.858 892.548 440.311C891.756 439.791 891.163 439.164 890.769 438.431C890.375 437.698 890.19 436.93 890.215 436.128C890.229 435.319 890.477 434.548 890.959 433.816C891.354 433.215 891.822 432.754 892.362 432.434C892.899 432.098 893.482 431.9 894.111 431.839C894.736 431.762 895.374 431.829 896.024 432.041C896.665 432.247 897.288 432.599 897.893 433.098L893.553 439.701L892.545 439.038L895.828 434.045C895.066 433.587 894.354 433.413 893.693 433.524C893.027 433.618 892.491 433.976 892.082 434.598C891.785 435.049 891.645 435.524 891.662 436.024C891.675 436.506 891.839 436.988 892.155 437.468C892.468 437.932 892.935 438.368 893.557 438.777C894.178 439.186 894.774 439.448 895.344 439.564C895.904 439.674 896.416 439.637 896.881 439.455C897.346 439.272 897.736 438.94 898.053 438.459C898.429 437.887 898.593 437.32 898.546 436.758C898.506 436.186 898.264 435.668 897.822 435.205L898.811 433.701C899.568 434.471 899.988 435.351 900.071 436.339C900.151 437.31 899.88 438.267 899.261 439.21ZM905.965 429.176C905.47 429.928 904.868 430.537 904.159 431.005C903.446 431.455 902.673 431.758 901.839 431.913C901.011 432.058 900.167 432.042 899.307 431.865C898.437 431.681 897.606 431.328 896.814 430.807C896.022 430.287 895.374 429.667 894.87 428.948C894.366 428.229 894.022 427.464 893.837 426.653C893.648 425.825 893.625 424.999 893.766 424.172C893.903 423.329 894.219 422.532 894.714 421.78C895.307 420.877 896.033 420.177 896.892 419.679C897.757 419.171 898.687 418.892 899.682 418.842C900.684 418.782 901.673 418.981 902.652 419.437L901.495 421.197C900.847 420.915 900.189 420.791 899.52 420.825C898.852 420.859 898.23 421.04 897.657 421.366C897.09 421.683 896.608 422.142 896.213 422.744C895.863 423.275 895.641 423.832 895.545 424.415C895.455 424.988 895.487 425.562 895.641 426.137C895.801 426.702 896.072 427.239 896.455 427.749C896.844 428.249 897.34 428.697 897.941 429.093C898.543 429.488 899.155 429.769 899.779 429.935C900.399 430.084 901 430.12 901.582 430.043C902.17 429.956 902.715 429.761 903.216 429.458C903.713 429.139 904.136 428.713 904.485 428.182C904.881 427.58 905.115 426.951 905.187 426.295C905.249 425.632 905.16 424.992 904.92 424.375C904.686 423.747 904.312 423.192 903.796 422.71L904.953 420.95C905.76 421.667 906.334 422.497 906.676 423.44C907.025 424.373 907.143 425.341 907.03 426.343C906.913 427.329 906.558 428.273 905.965 429.176ZM911.269 420.615L910.261 422.149L899.461 415.049L900.47 413.515L911.269 420.615ZM913.654 416.987L912.655 418.506L904.684 413.266L905.682 411.746L913.654 416.987ZM904.05 410.199C904.331 410.384 904.502 410.647 904.564 410.99C904.623 411.316 904.547 411.639 904.336 411.96C904.118 412.291 903.845 412.499 903.516 412.584C903.184 412.653 902.877 412.595 902.596 412.41C902.295 412.213 902.121 411.954 902.072 411.635C902.02 411.299 902.103 410.966 902.32 410.635C902.531 410.314 902.798 410.116 903.12 410.041C903.439 409.949 903.749 410.002 904.05 410.199ZM917.272 411.843C916.791 412.575 916.191 413.107 915.47 413.437C914.757 413.758 913.984 413.875 913.151 413.787C912.315 413.682 911.491 413.363 910.679 412.829C909.877 412.302 909.27 411.674 908.859 410.944C908.449 410.214 908.252 409.453 908.271 408.661C908.279 407.862 908.517 407.107 908.985 406.395C909.42 405.733 909.946 405.239 910.563 404.912C911.176 404.569 911.848 404.4 912.576 404.405C913.302 404.394 914.04 404.57 914.791 404.935L913.743 406.529C913.049 406.187 912.399 406.083 911.794 406.217C911.189 406.351 910.702 406.698 910.333 407.26C910.043 407.701 909.913 408.161 909.943 408.64C909.963 409.113 910.119 409.575 910.411 410.025C910.704 410.476 911.136 410.889 911.707 411.265C912.269 411.634 912.819 411.867 913.359 411.963C913.899 412.06 914.39 412.023 914.831 411.854C915.273 411.685 915.639 411.379 915.929 410.938C916.304 410.367 916.43 409.782 916.307 409.183C916.19 408.575 915.84 408.015 915.257 407.503L916.296 405.923C916.945 406.465 917.416 407.069 917.71 407.737C917.994 408.397 918.105 409.08 918.043 409.786C917.971 410.486 917.714 411.171 917.272 411.843ZM921.533 405.001L920.535 406.52L909.735 399.421L910.734 397.902L917.126 402.104L915.806 396.346L916.983 394.556L918.426 400.783L925.182 399.451L923.896 401.406L917.758 402.519L921.533 405.001ZM920.658 382.804L928.848 393.875L927.651 395.694L914.241 392.566L915.408 390.791L926.349 393.481L919.571 384.459L920.658 382.804ZM934.832 384.771L933.599 383.96C933.875 384.501 933.992 385.066 933.949 385.655C933.906 386.245 933.691 386.835 933.302 387.427C932.761 388.249 932.111 388.769 931.35 388.987C930.579 389.198 929.828 389.063 929.096 388.582C928.313 388.068 927.923 387.373 927.924 386.498C927.931 385.612 928.324 384.578 929.102 383.395C929.254 383.164 929.407 382.942 929.562 382.728C929.717 382.514 929.92 382.26 930.171 381.965L929.585 381.58C929.023 381.21 928.491 381.069 927.989 381.156C927.477 381.235 927.046 381.541 926.697 382.073C926.335 382.624 926.205 383.171 926.308 383.713C926.408 384.238 926.727 384.692 927.266 385.074L926.356 386.458C925.768 386.042 925.342 385.554 925.078 384.994C924.812 384.416 924.713 383.813 924.782 383.183C924.848 382.537 925.085 381.903 925.494 381.281C926.14 380.299 926.907 379.711 927.794 379.519C928.678 379.311 929.596 379.519 930.549 380.146L935.663 383.507L934.832 384.771ZM930 387.108C930.411 387.379 930.837 387.451 931.279 387.325C931.721 387.199 932.1 386.895 932.417 386.414C932.838 385.772 932.991 385.147 932.874 384.539C932.747 383.924 932.377 383.415 931.766 383.013L931.119 382.588C930.897 382.859 930.709 383.102 930.554 383.316C930.389 383.523 930.241 383.727 930.109 383.928C929.608 384.69 929.348 385.337 929.328 385.87C929.304 386.386 929.528 386.799 930 387.108ZM938.007 379.942L936.998 381.476L926.198 374.377L927.207 372.843L938.007 379.942ZM940.391 376.314L939.393 377.833L931.421 372.593L932.42 371.074L940.391 376.314ZM930.787 369.527C931.068 369.711 931.239 369.975 931.301 370.317C931.36 370.643 931.284 370.966 931.073 371.287C930.855 371.618 930.582 371.826 930.253 371.912C929.921 371.98 929.614 371.922 929.334 371.738C929.033 371.54 928.858 371.282 928.809 370.962C928.757 370.627 928.84 370.293 929.057 369.962C929.268 369.641 929.535 369.443 929.857 369.368C930.176 369.276 930.486 369.329 930.787 369.527ZM937.416 372.157C936.614 371.629 935.998 371.016 935.567 370.316C935.126 369.61 934.905 368.876 934.904 368.114C934.902 367.352 935.135 366.615 935.603 365.903C935.953 365.371 936.408 364.974 936.969 364.711C937.526 364.431 938.138 364.309 938.803 364.345L934.607 361.586L935.606 360.067L946.405 367.166L945.476 368.58L944.047 367.641C944.364 368.251 944.507 368.884 944.478 369.54C944.446 370.179 944.245 370.78 943.876 371.341C943.408 372.053 942.824 372.559 942.123 372.86C941.413 373.154 940.651 373.242 939.839 373.125C939.016 373 938.208 372.677 937.416 372.157ZM938.454 370.577C939.347 371.164 940.172 371.405 940.93 371.3C941.688 371.196 942.285 370.812 942.72 370.15C943.01 369.709 943.154 369.251 943.15 368.775C943.144 368.282 942.993 367.802 942.697 367.335C942.408 366.857 941.972 366.428 941.39 366.045C940.799 365.656 940.232 365.427 939.689 365.357C939.146 365.288 938.657 365.354 938.222 365.557C937.777 365.752 937.417 366.061 937.14 366.482C936.705 367.144 936.589 367.844 936.794 368.581C936.998 369.319 937.552 369.984 938.454 370.577ZM950.967 360.226L949.734 359.415C950.01 359.956 950.127 360.521 950.084 361.111C950.042 361.7 949.826 362.29 949.437 362.882C948.896 363.704 948.246 364.224 947.485 364.442C946.714 364.654 945.963 364.519 945.231 364.038C944.448 363.523 944.058 362.829 944.059 361.953C944.067 361.068 944.459 360.034 945.237 358.85C945.389 358.62 945.542 358.397 945.697 358.183C945.852 357.969 946.055 357.715 946.306 357.421L945.72 357.035C945.158 356.666 944.626 356.525 944.124 356.611C943.612 356.691 943.182 356.996 942.832 357.528C942.47 358.079 942.34 358.626 942.443 359.168C942.543 359.693 942.862 360.147 943.401 360.53L942.491 361.913C941.903 361.498 941.477 361.01 941.214 360.449C940.947 359.872 940.848 359.268 940.917 358.639C940.983 357.993 941.22 357.359 941.629 356.737C942.275 355.754 943.042 355.167 943.929 354.975C944.813 354.766 945.731 354.975 946.684 355.601L951.798 358.963L950.967 360.226ZM946.135 362.564C946.546 362.834 946.972 362.906 947.414 362.78C947.856 362.654 948.235 362.351 948.552 361.869C948.973 361.228 949.126 360.603 949.009 359.994C948.882 359.379 948.512 358.871 947.901 358.469L947.254 358.044C947.033 358.315 946.844 358.557 946.689 358.771C946.524 358.979 946.376 359.182 946.244 359.383C945.743 360.145 945.483 360.792 945.463 361.325C945.439 361.841 945.663 362.254 946.135 362.564ZM954.567 351.539L955.906 352.419C955.864 352.722 955.791 352.997 955.686 353.244C955.588 353.481 955.46 353.72 955.302 353.96C954.979 354.452 954.602 354.829 954.171 355.091C953.746 355.343 953.274 355.45 952.755 355.41C952.235 355.37 951.685 355.159 951.103 354.776L946.832 351.968L945.675 353.728L944.381 352.878L945.538 351.118L943.177 349.565L944.175 348.046L946.537 349.599L948.119 347.192L949.412 348.042L947.83 350.449L951.756 353.03C952.308 353.392 952.773 353.526 953.152 353.43C953.537 353.324 953.861 353.071 954.125 352.67C954.244 352.489 954.341 352.309 954.416 352.129C954.488 351.932 954.538 351.735 954.567 351.539ZM959.244 347.963C958.875 348.524 958.432 348.98 957.915 349.329C957.395 349.662 956.834 349.882 956.232 349.989C955.62 350.09 954.998 350.075 954.365 349.946C953.738 349.807 953.129 349.543 952.537 349.154C951.946 348.765 951.462 348.311 951.086 347.791C950.716 347.261 950.461 346.698 950.321 346.103C950.171 345.502 950.15 344.9 950.259 344.297C950.365 343.677 950.603 343.086 950.972 342.525C951.347 341.953 951.796 341.501 952.316 341.168C952.833 340.819 953.394 340.599 953.999 340.508C954.601 340.401 955.215 340.417 955.842 340.556C956.475 340.685 957.087 340.944 957.679 341.333C958.27 341.722 958.751 342.181 959.121 342.712C959.497 343.232 959.76 343.793 959.91 344.394C960.057 344.979 960.078 345.581 959.972 346.201C959.863 346.804 959.62 347.391 959.244 347.963ZM957.906 347.083C958.196 346.642 958.346 346.173 958.356 345.677C958.363 345.164 958.221 344.669 957.932 344.192C957.649 343.705 957.222 343.273 956.65 342.897C956.069 342.515 955.503 342.294 954.954 342.234C954.401 342.158 953.895 342.228 953.437 342.444C952.986 342.65 952.615 342.973 952.325 343.415C952.042 343.846 951.892 344.314 951.875 344.82C951.865 345.316 952.001 345.808 952.284 346.295C952.563 346.766 952.994 347.193 953.575 347.575C954.147 347.951 954.709 348.177 955.262 348.253C955.822 348.319 956.332 348.253 956.794 348.054C957.252 347.838 957.622 347.514 957.906 347.083ZM959.605 338.206L963.681 340.885L962.683 342.405L954.711 337.164L955.64 335.75L957.325 336.858C956.958 336.214 956.795 335.512 956.837 334.749C956.885 333.977 957.124 333.265 957.552 332.613L959.132 333.651C958.726 334.203 958.455 334.757 958.319 335.314C958.189 335.86 958.224 336.386 958.424 336.891C958.62 337.379 959.014 337.817 959.605 338.206Z" fill="white"/>
<rect x="797" y="539.25" width="209" height="71" rx="35.5" transform="rotate(-19.06 797 539.25)" fill="white" fill-opacity="0.2"/>
<path d="M879.414 555.742L878.07 556.206L877.762 552.561L876.129 553.125L875.677 551.815L877.565 551.163L877.398 548.859L875.628 549.47L875.17 548.143L877.211 547.438L876.886 543.741L878.23 543.277L878.555 546.973L880.342 546.356L880.034 542.654L881.378 542.189L881.686 545.892L883.336 545.322L883.795 546.649L881.872 547.313L882.056 549.611L883.843 548.994L884.295 550.304L882.237 551.015L882.561 554.654L881.217 555.119L880.91 551.473L879.106 552.096L879.414 555.742ZM878.742 548.395L878.909 550.698L880.712 550.075L880.545 547.771L878.742 548.395ZM894.235 550.621L887.146 542.615L890.373 551.955L888.655 552.549L884.434 540.334L886.731 539.54L894.258 548.042L894.914 536.713L897.228 535.913L901.449 548.129L899.713 548.728L896.48 539.371L895.834 550.069L894.235 550.621ZM905.672 546.67L903.953 547.263L900.838 538.246L902.556 537.653L905.672 546.67ZM902.208 535.431C902.317 535.748 902.292 536.062 902.132 536.371C901.98 536.665 901.722 536.874 901.359 537C900.985 537.129 900.642 537.127 900.329 536.994C900.024 536.846 899.816 536.612 899.707 536.295C899.589 535.955 899.608 535.643 899.765 535.361C899.928 535.063 900.197 534.849 900.572 534.72C900.935 534.595 901.267 534.601 901.568 534.738C901.877 534.859 902.09 535.091 902.208 535.431ZM908.018 540.165L909.775 545.252L908.057 545.846L904.942 536.829L906.541 536.276L907.058 537.773C907.192 537.168 907.45 536.629 907.832 536.154C908.225 535.675 908.734 535.328 909.357 535.113C910.287 534.791 911.13 534.824 911.886 535.21C912.653 535.593 913.222 536.323 913.595 537.4L915.611 543.236L913.893 543.829L912.076 538.572C911.81 537.801 911.44 537.262 910.966 536.956C910.492 536.65 909.932 536.609 909.285 536.832C908.888 536.97 908.562 537.203 908.308 537.532C908.05 537.85 907.891 538.235 907.831 538.687C907.771 539.139 907.834 539.632 908.018 540.165ZM922.37 539.034L922.894 540.548C922.676 540.763 922.45 540.936 922.216 541.068C921.994 541.196 921.746 541.306 921.474 541.4C920.918 541.592 920.39 541.661 919.888 541.606C919.398 541.546 918.959 541.342 918.572 540.994C918.185 540.645 917.878 540.142 917.651 539.484L915.981 534.652L913.991 535.34L913.485 533.877L915.476 533.189L914.553 530.518L916.271 529.924L917.194 532.595L919.916 531.655L920.422 533.118L917.7 534.059L919.234 538.499C919.449 539.123 919.736 539.512 920.095 539.668C920.465 539.819 920.876 539.817 921.33 539.66C921.534 539.59 921.721 539.506 921.891 539.409C922.068 539.297 922.228 539.172 922.37 539.034ZM930.133 538.218L929.651 536.823C929.54 537.42 929.287 537.939 928.894 538.38C928.5 538.821 927.968 539.157 927.299 539.388C926.369 539.709 925.536 539.724 924.801 539.432C924.061 539.129 923.548 538.564 923.262 537.736C922.957 536.851 923.071 536.062 923.607 535.369C924.153 534.673 925.095 534.093 926.434 533.631C926.695 533.541 926.952 533.458 927.205 533.383C927.459 533.308 927.775 533.231 928.153 533.151L927.924 532.487C927.705 531.852 927.37 531.416 926.919 531.178C926.465 530.929 925.937 530.908 925.336 531.115C924.712 531.331 924.276 531.685 924.027 532.177C923.786 532.654 923.761 533.208 923.954 533.84L922.389 534.381C922.177 533.692 922.137 533.046 922.271 532.441C922.412 531.821 922.702 531.283 923.141 530.826C923.588 530.355 924.163 529.997 924.866 529.754C925.978 529.37 926.943 529.373 927.764 529.763C928.591 530.137 929.191 530.863 929.563 531.94L931.562 537.725L930.133 538.218ZM924.878 537.12C925.039 537.585 925.332 537.903 925.759 538.073C926.186 538.243 926.672 538.233 927.216 538.045C927.942 537.795 928.444 537.392 928.723 536.839C928.998 536.275 929.016 535.646 928.776 534.954L928.524 534.223C928.183 534.302 927.886 534.38 927.633 534.455C927.375 534.518 927.133 534.589 926.906 534.667C926.044 534.965 925.443 535.319 925.102 535.729C924.768 536.123 924.694 536.587 924.878 537.12ZM935.578 536.337L933.859 536.931L930.744 527.914L932.462 527.32L935.578 536.337ZM932.114 525.098C932.223 525.416 932.198 525.729 932.038 526.038C931.886 526.332 931.628 526.542 931.265 526.667C930.891 526.797 930.548 526.795 930.235 526.661C929.93 526.513 929.722 526.28 929.613 525.962C929.495 525.622 929.514 525.311 929.671 525.028C929.834 524.73 930.103 524.517 930.478 524.388C930.841 524.262 931.173 524.268 931.474 524.405C931.783 524.527 931.996 524.758 932.114 525.098ZM938.088 530.309L939.681 534.919L937.963 535.513L934.848 526.496L936.447 525.944L937.105 527.849C937.207 527.115 937.508 526.459 938.006 525.881C938.516 525.299 939.139 524.88 939.876 524.625L940.494 526.412C939.835 526.601 939.282 526.875 938.835 527.232C938.398 527.586 938.105 528.024 937.955 528.546C937.813 529.052 937.857 529.64 938.088 530.309Z" fill="white"/>
<g filter="url(#filter0_b_342_2823)">
<rect x="628" y="549.927" width="213" height="71" rx="35.5" transform="rotate(-33.2953 628 549.927)" fill="white" fill-opacity="0.2"/>
<path d="M673.215 570.48L672.026 571.261L670.832 567.803L669.388 568.751L668.627 567.593L670.297 566.496L669.568 564.304L668.003 565.332L667.232 564.159L669.038 562.973L667.814 559.47L669.003 558.689L670.227 562.192L671.806 561.155L670.597 557.642L671.786 556.861L672.995 560.374L674.454 559.416L675.225 560.589L673.525 561.706L674.269 563.888L675.848 562.85L676.609 564.009L674.789 565.204L675.998 568.652L674.81 569.433L673.615 565.975L672.02 567.022L673.215 570.48ZM670.757 563.524L671.485 565.716L673.08 564.668L672.351 562.476L670.757 563.524ZM681.017 549.894L685.671 556.98C686.205 557.793 686.511 558.597 686.588 559.393C686.676 560.182 686.539 560.925 686.179 561.622C685.811 562.308 685.226 562.915 684.424 563.442C683.631 563.962 682.852 564.251 682.086 564.309C681.32 564.367 680.601 564.223 679.928 563.875C679.254 563.528 678.667 562.994 678.166 562.275L679.836 561.179C680.159 561.627 680.51 561.964 680.888 562.189C681.269 562.398 681.674 562.491 682.104 562.467C682.537 562.427 682.984 562.255 683.445 561.952C683.917 561.643 684.254 561.292 684.456 560.901C684.659 560.509 684.725 560.086 684.655 559.629C684.588 559.156 684.387 558.664 684.051 558.152L679.347 550.991L681.017 549.894ZM693.697 557.244C693.136 557.612 692.548 557.855 691.935 557.97C691.325 558.069 690.723 558.049 690.128 557.908C689.527 557.757 688.961 557.497 688.431 557.127C687.911 556.751 687.457 556.267 687.068 555.675C686.679 555.083 686.416 554.474 686.277 553.848C686.148 553.214 686.137 552.597 686.245 551.995C686.345 551.383 686.566 550.822 686.905 550.312C687.248 549.785 687.701 549.338 688.263 548.969C688.834 548.593 689.425 548.356 690.035 548.257C690.648 548.141 691.25 548.162 691.842 548.319C692.436 548.46 692.994 548.718 693.514 549.095C694.044 549.464 694.503 549.945 694.892 550.537C695.28 551.129 695.539 551.741 695.668 552.375C695.807 553.001 695.826 553.62 695.725 554.232C695.628 554.827 695.407 555.388 695.064 555.915C694.725 556.425 694.269 556.868 693.697 557.244ZM692.818 555.905C693.259 555.615 693.583 555.244 693.789 554.793C693.999 554.325 694.065 553.815 693.989 553.262C693.923 552.702 693.702 552.136 693.327 551.565C692.945 550.983 692.513 550.556 692.033 550.283C691.555 549.993 691.064 549.857 690.558 549.873C690.062 549.883 689.593 550.033 689.152 550.323C688.721 550.606 688.397 550.977 688.181 551.434C687.975 551.886 687.904 552.391 687.971 552.951C688.04 553.494 688.266 554.056 688.648 554.638C689.023 555.209 689.45 555.64 689.927 555.93C690.414 556.213 690.909 556.354 691.412 556.354C691.918 556.338 692.386 556.188 692.818 555.905ZM700.579 552.509L699.059 553.507L693.822 545.533L695.342 544.535L700.579 552.509ZM694.457 542.467C694.642 542.748 694.695 543.057 694.616 543.396C694.54 543.719 694.342 543.985 694.021 544.196C693.69 544.413 693.357 544.496 693.021 544.444C692.689 544.375 692.43 544.2 692.246 543.919C692.048 543.618 691.99 543.312 692.072 542.999C692.158 542.67 692.366 542.397 692.697 542.18C693.018 541.969 693.341 541.893 693.667 541.952C693.996 541.994 694.26 542.166 694.457 542.467ZM701.253 545.627L704.208 550.125L702.688 551.123L697.451 543.149L698.866 542.22L699.735 543.544C699.716 542.925 699.833 542.339 700.087 541.784C700.35 541.224 700.758 540.762 701.309 540.4C702.132 539.86 702.957 539.684 703.784 539.873C704.622 540.055 705.353 540.623 705.979 541.575L709.369 546.736L707.849 547.734L704.796 543.085C704.348 542.403 703.856 541.972 703.322 541.792C702.787 541.612 702.234 541.709 701.662 542.085C701.311 542.315 701.053 542.622 700.887 543.003C700.715 543.375 700.655 543.787 700.709 544.24C700.762 544.693 700.944 545.155 701.253 545.627ZM712.332 529.327L715.455 542.739L713.635 543.934L702.568 535.74L704.343 534.574L713.318 541.386L710.677 530.414L712.332 529.327ZM724.561 536.758L723.751 535.524C723.79 536.13 723.673 536.695 723.4 537.219C723.127 537.743 722.694 538.199 722.103 538.588C721.28 539.128 720.476 539.347 719.692 539.245C718.9 539.134 718.264 538.711 717.783 537.979C717.27 537.197 717.187 536.404 717.535 535.601C717.894 534.791 718.664 533.998 719.848 533.221C720.079 533.069 720.308 532.926 720.535 532.791C720.762 532.656 721.05 532.503 721.397 532.333L721.011 531.746C720.643 531.184 720.211 530.843 719.715 530.724C719.214 530.594 718.697 530.703 718.166 531.052C717.614 531.415 717.278 531.865 717.158 532.403C717.041 532.925 717.154 533.468 717.496 534.033L716.112 534.942C715.737 534.327 715.54 533.71 715.521 533.091C715.505 532.455 715.654 531.862 715.967 531.312C716.284 530.745 716.753 530.257 717.375 529.849C718.358 529.203 719.295 528.968 720.186 529.144C721.08 529.303 721.84 529.86 722.466 530.812L725.825 535.928L724.561 536.758ZM719.198 536.985C719.468 537.397 719.831 537.632 720.287 537.692C720.742 537.752 721.211 537.623 721.692 537.307C722.334 536.886 722.722 536.372 722.856 535.768C722.983 535.153 722.846 534.539 722.444 533.928L722.019 533.281C721.709 533.442 721.44 533.589 721.213 533.724C720.979 533.849 720.761 533.978 720.561 534.109C719.799 534.61 719.303 535.101 719.073 535.582C718.847 536.046 718.888 536.514 719.198 536.985ZM729.392 533.586L727.857 534.593L720.762 523.791L722.297 522.783L729.392 533.586ZM733.02 531.202L731.501 532.2L726.264 524.226L727.783 523.228L733.02 531.202ZM726.899 521.16C727.083 521.441 727.136 521.751 727.057 522.09C726.982 522.412 726.784 522.679 726.463 522.89C726.132 523.107 725.798 523.19 725.463 523.137C725.13 523.069 724.872 522.894 724.687 522.613C724.49 522.312 724.432 522.005 724.514 521.693C724.599 521.364 724.808 521.091 725.139 520.874C725.46 520.663 725.783 520.587 726.109 520.646C726.438 520.688 726.701 520.859 726.899 521.16ZM731.94 526.205C731.413 525.403 731.09 524.595 730.973 523.782C730.849 522.959 730.937 522.198 731.238 521.498C731.539 520.798 732.046 520.214 732.758 519.746C733.29 519.397 733.865 519.213 734.484 519.194C735.107 519.158 735.717 519.289 736.314 519.586L733.557 515.388L735.076 514.39L742.171 525.193L740.757 526.121L739.818 524.692C739.867 525.378 739.747 526.016 739.46 526.607C739.177 527.181 738.754 527.652 738.193 528.021C737.481 528.489 736.743 528.721 735.981 528.719C735.212 528.708 734.478 528.486 733.779 528.055C733.073 527.614 732.46 526.998 731.94 526.205ZM733.519 525.168C734.106 526.061 734.768 526.609 735.505 526.814C736.243 527.019 736.942 526.904 737.604 526.469C738.046 526.179 738.359 525.815 738.545 525.377C738.735 524.923 738.787 524.422 738.7 523.876C738.624 523.323 738.395 522.755 738.013 522.173C737.625 521.582 737.195 521.146 736.724 520.867C736.254 520.587 735.779 520.454 735.299 520.467C734.813 520.471 734.36 520.611 733.938 520.887C733.276 521.322 732.893 521.919 732.788 522.677C732.683 523.435 732.927 524.265 733.519 525.168ZM749.113 520.633L748.303 519.4C748.342 520.006 748.225 520.571 747.952 521.095C747.678 521.619 747.246 522.075 746.654 522.464C745.832 523.004 745.028 523.223 744.243 523.121C743.452 523.009 742.816 522.587 742.335 521.855C741.821 521.072 741.738 520.28 742.087 519.477C742.445 518.667 743.216 517.874 744.4 517.096C744.63 516.945 744.859 516.802 745.087 516.667C745.314 516.532 745.601 516.379 745.948 516.208L745.563 515.622C745.194 515.06 744.762 514.719 744.267 514.599C743.765 514.469 743.249 514.579 742.717 514.928C742.165 515.29 741.83 515.741 741.709 516.279C741.593 516.801 741.705 517.344 742.048 517.909L740.663 518.818C740.288 518.203 740.091 517.586 740.072 516.967C740.056 516.331 740.205 515.738 740.519 515.187C740.835 514.62 741.305 514.133 741.927 513.724C742.91 513.079 743.846 512.844 744.737 513.02C745.631 513.179 746.391 513.735 747.017 514.688L750.377 519.803L749.113 520.633ZM743.75 520.861C744.02 521.272 744.383 521.508 744.838 521.567C745.294 521.627 745.762 521.499 746.244 521.183C746.886 520.761 747.273 520.248 747.407 519.643C747.535 519.028 747.398 518.415 746.996 517.803L746.571 517.156C746.26 517.317 745.991 517.465 745.764 517.6C745.53 517.725 745.313 517.853 745.112 517.985C744.35 518.485 743.854 518.976 743.624 519.457C743.398 519.922 743.44 520.39 743.75 520.861ZM755.865 514.088L756.745 515.427C756.586 515.689 756.41 515.913 756.216 516.098C756.032 516.276 755.819 516.444 755.578 516.603C755.087 516.925 754.591 517.122 754.092 517.191C753.602 517.255 753.127 517.165 752.666 516.922C752.205 516.679 751.783 516.267 751.401 515.685L748.595 511.412L746.834 512.568L745.985 511.274L747.745 510.118L746.194 507.756L747.713 506.758L749.265 509.12L751.672 507.539L752.522 508.833L750.114 510.414L752.693 514.341C753.056 514.893 753.43 515.2 753.815 515.262C754.211 515.318 754.609 515.215 755.011 514.951C755.191 514.833 755.352 514.706 755.493 514.57C755.637 514.418 755.761 514.257 755.865 514.088ZM761.578 512.663C761.016 513.031 760.428 513.274 759.815 513.389C759.205 513.488 758.603 513.467 758.008 513.327C757.407 513.176 756.841 512.916 756.311 512.546C755.791 512.17 755.337 511.686 754.948 511.094C754.56 510.502 754.296 509.893 754.157 509.266C754.029 508.633 754.018 508.016 754.125 507.414C754.226 506.802 754.446 506.241 754.786 505.731C755.129 505.204 755.581 504.757 756.143 504.388C756.715 504.012 757.305 503.775 757.915 503.676C758.528 503.56 759.131 503.581 759.722 503.738C760.317 503.879 760.874 504.137 761.394 504.514C761.924 504.883 762.383 505.364 762.772 505.956C763.161 506.548 763.419 507.16 763.548 507.794C763.687 508.42 763.706 509.039 763.605 509.651C763.508 510.246 763.288 510.807 762.945 511.334C762.605 511.844 762.149 512.287 761.578 512.663ZM760.698 511.324C761.139 511.034 761.463 510.663 761.669 510.212C761.879 509.744 761.946 509.234 761.87 508.681C761.804 508.121 761.583 507.555 761.207 506.984C760.825 506.402 760.394 505.975 759.913 505.702C759.436 505.412 758.944 505.276 758.438 505.292C757.942 505.302 757.474 505.452 757.032 505.742C756.601 506.025 756.277 506.395 756.061 506.853C755.855 507.305 755.785 507.81 755.851 508.37C755.92 508.913 756.146 509.475 756.528 510.057C756.904 510.628 757.33 511.059 757.807 511.349C758.295 511.631 758.79 511.773 759.292 511.773C759.798 511.757 760.267 511.607 760.698 511.324ZM765.781 503.85L768.459 507.928L766.94 508.926L761.703 500.952L763.117 500.023L764.224 501.708C764.142 500.972 764.272 500.262 764.613 499.579C764.964 498.889 765.465 498.33 766.117 497.902L767.155 499.481C766.563 499.827 766.094 500.228 765.748 500.685C765.412 501.135 765.236 501.632 765.219 502.174C765.205 502.7 765.393 503.259 765.781 503.85ZM771.763 500.008L776.788 496.708L778.119 497.75L772.086 501.713L771.763 500.008ZM780.179 500.231L770.975 493.398L773.544 504.588L771.873 505.685L768.916 492.165L770.737 490.97L781.939 499.075L780.179 500.231ZM782.149 493.101L784.827 497.178L783.307 498.176L778.07 490.202L779.485 489.273L780.591 490.958C780.51 490.222 780.64 489.512 780.98 488.829C781.331 488.139 781.833 487.58 782.485 487.152L783.522 488.732C782.931 489.077 782.462 489.478 782.116 489.935C781.78 490.386 781.604 490.882 781.587 491.424C781.573 491.95 781.76 492.509 782.149 493.101ZM790.513 493.444L788.993 494.442L783.756 486.468L785.171 485.539L786.04 486.863C786.008 486.223 786.117 485.635 786.367 485.098C786.617 484.56 787.018 484.11 787.569 483.748C788.151 483.366 788.748 483.182 789.36 483.196C789.976 483.194 790.549 483.399 791.079 483.812C791.024 483.116 791.126 482.474 791.386 481.887C791.64 481.29 792.073 480.79 792.685 480.388C793.507 479.848 794.331 479.681 795.155 479.886C795.982 480.075 796.705 480.641 797.325 481.584L800.714 486.744L799.194 487.742L796.121 483.063C795.68 482.391 795.195 481.97 794.667 481.8C794.132 481.62 793.589 481.711 793.038 482.073C792.697 482.297 792.443 482.6 792.278 482.982C792.115 483.347 792.058 483.751 792.104 484.194C792.151 484.637 792.32 485.079 792.61 485.52L795.613 490.094L794.094 491.092L791.021 486.413C790.579 485.741 790.095 485.32 789.567 485.15C789.042 484.963 788.499 485.054 787.937 485.423C787.586 485.654 787.328 485.96 787.162 486.341C787 486.706 786.942 487.11 786.989 487.553C787.046 487.99 787.219 488.428 787.509 488.87L790.513 493.444ZM803.835 473.281L806.992 486.777L805.337 487.864L804.504 484.104L796.192 478.3L797.832 477.223L804.141 481.78L802.3 474.289L803.835 473.281Z" fill="white"/>
</g>
<g filter="url(#filter1_b_342_2823)">
<rect x="647" y="405.128" width="213" height="71" rx="35.5" transform="rotate(-15 647 405.128)" fill="white" fill-opacity="0.2"/>
<path d="M707.754 432.848L706.381 433.216L706.332 429.558L704.663 430.006L704.304 428.667L706.234 428.15L706.23 425.84L704.422 426.325L704.059 424.968L706.145 424.409L706.083 420.699L707.456 420.331L707.519 424.041L709.344 423.552L709.299 419.837L710.673 419.469L710.718 423.184L712.404 422.732L712.768 424.088L710.803 424.615L710.824 426.92L712.65 426.431L713.009 427.769L710.905 428.333L710.971 431.987L709.597 432.355L709.549 428.696L707.706 429.19L707.754 432.848ZM707.604 425.472L707.608 427.782L709.451 427.288L709.447 424.978L707.604 425.472ZM722.901 428.79L716.396 420.302L718.954 429.847L717.198 430.318L713.853 417.834L716.2 417.205L723.106 426.219L724.563 414.965L726.928 414.331L730.273 426.815L728.499 427.29L725.937 417.727L724.535 428.352L722.901 428.79ZM734.589 425.658L732.832 426.129L730.363 416.914L732.119 416.443L734.589 425.658ZM731.929 414.202C732.016 414.527 731.969 414.838 731.787 415.135C731.615 415.417 731.343 415.608 730.972 415.707C730.589 415.81 730.247 415.783 729.944 415.628C729.65 415.459 729.46 415.212 729.373 414.887C729.28 414.539 729.321 414.23 729.497 413.959C729.682 413.674 729.965 413.48 730.348 413.377C730.718 413.278 731.049 413.307 731.34 413.465C731.639 413.609 731.836 413.854 731.929 414.202ZM737.389 419.336L738.782 424.534L737.026 425.005L734.557 415.79L736.192 415.352L736.602 416.882C736.778 416.288 737.073 415.768 737.488 415.322C737.914 414.872 738.446 414.562 739.083 414.391C740.034 414.136 740.872 414.228 741.599 414.667C742.337 415.103 742.853 415.872 743.148 416.973L744.746 422.937L742.99 423.407L741.55 418.035C741.339 417.246 741.008 416.683 740.557 416.344C740.106 416.005 739.55 415.924 738.889 416.101C738.484 416.21 738.142 416.42 737.865 416.73C737.585 417.029 737.399 417.401 737.308 417.848C737.216 418.295 737.243 418.791 737.389 419.336ZM751.786 419.224L752.201 420.771C751.968 420.97 751.731 421.127 751.488 421.242C751.257 421.353 751.003 421.446 750.724 421.521C750.156 421.673 749.624 421.704 749.128 421.613C748.643 421.52 748.22 421.285 747.859 420.91C747.497 420.535 747.226 420.011 747.046 419.339L745.723 414.401L743.689 414.946L743.288 413.451L745.323 412.906L744.591 410.176L746.347 409.705L747.079 412.435L749.86 411.69L750.261 413.185L747.479 413.93L748.695 418.468C748.866 419.106 749.125 419.515 749.471 419.695C749.829 419.872 750.24 419.899 750.704 419.775C750.912 419.719 751.105 419.649 751.281 419.564C751.466 419.465 751.634 419.352 751.786 419.224ZM759.587 418.96L759.205 417.534C759.051 418.122 758.763 418.622 758.339 419.033C757.915 419.445 757.361 419.743 756.677 419.926C755.727 420.181 754.895 420.136 754.182 419.793C753.466 419.438 752.994 418.838 752.768 417.992C752.525 417.088 752.696 416.309 753.279 415.656C753.873 415 754.854 414.489 756.222 414.122C756.488 414.051 756.751 413.986 757.009 413.93C757.267 413.873 757.588 413.818 757.971 413.765L757.789 413.087C757.615 412.438 757.312 411.979 756.88 411.71C756.444 411.429 755.919 411.371 755.305 411.535C754.668 411.706 754.207 412.028 753.924 412.501C753.649 412.96 753.586 413.511 753.734 414.155L752.134 414.584C751.971 413.882 751.977 413.234 752.154 412.64C752.339 412.032 752.666 411.516 753.136 411.091C753.615 410.652 754.214 410.337 754.932 410.144C756.068 409.84 757.031 409.911 757.822 410.358C758.621 410.789 759.168 411.556 759.463 412.657L761.047 418.569L759.587 418.96ZM754.423 417.492C754.55 417.968 754.821 418.305 755.235 418.505C755.648 418.705 756.133 418.73 756.69 418.581C757.432 418.382 757.961 418.017 758.278 417.484C758.592 416.941 758.654 416.315 758.465 415.608L758.265 414.86C757.919 414.916 757.617 414.972 757.359 415.029C757.098 415.074 756.851 415.127 756.62 415.189C755.739 415.425 755.114 415.736 754.745 416.12C754.384 416.49 754.277 416.948 754.423 417.492ZM765.151 417.469L763.395 417.94L760.926 408.725L762.682 408.254L765.151 417.469ZM762.491 406.013C762.578 406.338 762.531 406.648 762.35 406.945C762.177 407.228 761.905 407.419 761.534 407.518C761.152 407.621 760.809 407.594 760.507 407.439C760.213 407.27 760.022 407.022 759.936 406.698C759.842 406.35 759.884 406.041 760.06 405.77C760.244 405.485 760.528 405.291 760.91 405.188C761.281 405.089 761.612 405.118 761.903 405.276C762.202 405.42 762.398 405.665 762.491 406.013ZM768.082 411.633L769.345 416.345L767.589 416.816L765.12 407.601L766.754 407.163L767.276 409.11C767.43 408.386 767.775 407.753 768.314 407.211C768.863 406.666 769.515 406.293 770.268 406.091L770.757 407.916C770.087 408.059 769.517 408.292 769.045 408.618C768.584 408.94 768.261 409.356 768.074 409.865C767.896 410.36 767.899 410.95 768.082 411.633ZM778.914 413.781L777.002 414.294L774.118 403.531L770.05 404.621L769.588 402.9L779.638 400.207L780.099 401.929L776.031 403.019L778.914 413.781ZM787.165 411.757C786.273 411.996 785.438 412.008 784.66 411.794C783.89 411.566 783.222 411.136 782.656 410.505C782.089 409.874 781.677 409.078 781.419 408.116C781.174 407.2 781.148 406.337 781.341 405.528C781.534 404.718 781.906 404.022 782.458 403.439C783.007 402.845 783.705 402.435 784.551 402.208C785.246 402.022 785.902 401.989 786.518 402.109C787.143 402.215 787.71 402.455 788.22 402.827C788.739 403.185 789.17 403.66 789.515 404.251C789.856 404.83 790.088 405.507 790.208 406.283L782.576 408.328L782.263 407.163L788.036 405.616C787.771 404.768 787.355 404.165 786.787 403.808C786.228 403.436 785.589 403.346 784.87 403.539C784.349 403.678 783.928 403.94 783.608 404.324C783.297 404.693 783.1 405.162 783.017 405.731C782.941 406.285 783 406.922 783.193 407.641C783.385 408.359 783.656 408.951 784.004 409.417C784.349 409.871 784.756 410.185 785.225 410.357C785.694 410.53 786.206 410.541 786.763 410.392C787.423 410.215 787.923 409.901 788.262 409.45C788.612 408.996 788.776 408.449 788.754 407.809L790.492 407.343C790.546 408.422 790.275 409.358 789.68 410.151C789.093 410.93 788.255 411.465 787.165 411.757ZM798.775 408.46L798.393 407.034C798.239 407.622 797.951 408.121 797.527 408.533C797.103 408.945 796.549 409.242 795.865 409.425C794.915 409.68 794.083 409.636 793.37 409.293C792.654 408.938 792.182 408.338 791.956 407.492C791.713 406.587 791.884 405.809 792.466 405.156C793.061 404.499 794.042 403.988 795.41 403.622C795.676 403.55 795.939 403.486 796.197 403.429C796.455 403.373 796.776 403.318 797.159 403.265L796.977 402.587C796.803 401.938 796.5 401.478 796.068 401.209C795.632 400.928 795.107 400.87 794.493 401.035C793.855 401.206 793.395 401.528 793.112 402.001C792.837 402.46 792.774 403.011 792.922 403.655L791.322 404.083C791.159 403.382 791.165 402.734 791.342 402.14C791.526 401.531 791.854 401.015 792.324 400.591C792.803 400.152 793.402 399.836 794.12 399.644C795.256 399.339 796.219 399.411 797.01 399.857C797.809 400.289 798.356 401.056 798.651 402.157L800.235 408.068L798.775 408.46ZM793.611 406.992C793.738 407.467 794.009 407.805 794.422 408.005C794.836 408.204 795.321 408.23 795.878 408.08C796.62 407.882 797.149 407.516 797.466 406.984C797.78 406.44 797.842 405.815 797.653 405.108L797.452 404.36C797.107 404.415 796.805 404.471 796.547 404.528C796.286 404.573 796.039 404.627 795.808 404.689C794.927 404.925 794.302 405.235 793.933 405.62C793.572 405.99 793.465 406.447 793.611 406.992ZM804.339 406.969L802.583 407.439L800.114 398.224L801.748 397.786L802.158 399.316C802.328 398.699 802.616 398.175 803.022 397.743C803.428 397.311 803.95 397.01 804.588 396.839C805.26 396.659 805.885 396.672 806.461 396.877C807.047 397.068 807.526 397.443 807.899 398.002C808.066 397.323 808.364 396.746 808.796 396.271C809.224 395.783 809.792 395.445 810.499 395.255C811.45 395 812.284 395.1 813.002 395.554C813.728 395.993 814.237 396.757 814.529 397.846L816.127 403.81L814.371 404.281L812.922 398.873C812.714 398.097 812.386 397.545 811.938 397.218C811.487 396.879 810.943 396.795 810.305 396.966C809.911 397.071 809.576 397.279 809.298 397.589C809.03 397.885 808.848 398.251 808.754 398.686C808.659 399.121 808.68 399.594 808.817 400.104L810.233 405.389L808.477 405.86L807.028 400.453C806.82 399.676 806.492 399.124 806.044 398.797C805.605 398.455 805.06 398.371 804.411 398.545C804.005 398.654 803.664 398.863 803.387 399.173C803.118 399.469 802.937 399.834 802.842 400.27C802.759 400.702 802.786 401.173 802.923 401.683L804.339 406.969Z" fill="white"/>
</g>
<g clip-path="url(#clip1_342_2823)">
<path d="M863.614 99H868.193L858.193 110.46L870 126H860.723L853.494 116.58L845.181 126H840.602L851.325 113.76L840 99H849.518L856.084 107.64L863.614 99ZM861.988 123.24H864.518L848.133 101.58H845.361L861.988 123.24Z" fill="white" fill-opacity="0.3"/>
</g>
<path d="M889.284 119.936V121.466C888.66 121.838 887.952 122.126 887.16 122.33C886.38 122.546 885.552 122.654 884.676 122.654C883.548 122.654 882.492 122.45 881.508 122.042C880.536 121.634 879.684 121.064 878.952 120.332C878.232 119.6 877.668 118.754 877.26 117.794C876.852 116.822 876.648 115.778 876.648 114.662C876.648 113.534 876.858 112.49 877.278 111.53C877.698 110.558 878.274 109.706 879.006 108.974C879.75 108.242 880.62 107.672 881.616 107.264C882.612 106.856 883.692 106.652 884.856 106.652C885.984 106.652 887.022 106.838 887.97 107.21C888.93 107.57 889.758 108.068 890.454 108.704C891.162 109.34 891.708 110.078 892.092 110.918C892.488 111.758 892.686 112.652 892.686 113.6C892.686 114.56 892.518 115.4 892.182 116.12C891.846 116.84 891.384 117.398 890.796 117.794C890.22 118.19 889.566 118.388 888.834 118.388C888.162 118.388 887.634 118.256 887.25 117.992C886.866 117.728 886.602 117.38 886.458 116.948C885.822 117.908 884.916 118.388 883.74 118.388C883.128 118.388 882.588 118.244 882.12 117.956C881.664 117.656 881.304 117.242 881.04 116.714C880.788 116.186 880.662 115.586 880.662 114.914C880.662 114.134 880.806 113.438 881.094 112.826C881.394 112.202 881.808 111.71 882.336 111.35C882.864 110.99 883.47 110.81 884.154 110.81C884.718 110.81 885.204 110.936 885.612 111.188C886.02 111.44 886.332 111.8 886.548 112.268L886.782 111.062H888.438L887.736 114.878C887.712 115.022 887.688 115.166 887.664 115.31C887.652 115.454 887.646 115.586 887.646 115.706C887.646 116.114 887.754 116.432 887.97 116.66C888.198 116.876 888.51 116.984 888.906 116.984C889.578 116.984 890.1 116.696 890.472 116.12C890.844 115.532 891.03 114.746 891.03 113.762C891.03 113.006 890.88 112.286 890.58 111.602C890.292 110.918 889.878 110.312 889.338 109.784C888.798 109.244 888.15 108.824 887.394 108.524C886.638 108.212 885.792 108.056 884.856 108.056C883.92 108.056 883.05 108.224 882.246 108.56C881.442 108.896 880.746 109.364 880.158 109.964C879.57 110.564 879.114 111.266 878.79 112.07C878.466 112.862 878.304 113.726 878.304 114.662C878.304 115.586 878.46 116.45 878.772 117.254C879.096 118.046 879.546 118.742 880.122 119.342C880.698 119.942 881.37 120.41 882.138 120.746C882.918 121.082 883.764 121.25 884.676 121.25C885.636 121.25 886.512 121.124 887.304 120.872C888.096 120.632 888.756 120.32 889.284 119.936ZM882.408 114.806C882.408 115.454 882.558 115.982 882.858 116.39C883.158 116.786 883.566 116.984 884.082 116.984C884.478 116.984 884.826 116.87 885.126 116.642C885.438 116.402 885.678 116.09 885.846 115.706C886.026 115.31 886.116 114.866 886.116 114.374C886.116 113.69 885.972 113.162 885.684 112.79C885.396 112.406 884.982 112.214 884.442 112.214C884.01 112.214 883.644 112.334 883.344 112.574C883.044 112.802 882.81 113.114 882.642 113.51C882.486 113.894 882.408 114.326 882.408 114.806ZM896.41 119H894.592V109.46H896.284V111.044C896.608 110.492 897.022 110.06 897.526 109.748C898.03 109.436 898.612 109.28 899.272 109.28C899.968 109.28 900.568 109.454 901.072 109.802C901.588 110.138 901.954 110.624 902.17 111.26C902.506 110.648 902.944 110.168 903.484 109.82C904.024 109.46 904.66 109.28 905.392 109.28C906.376 109.28 907.156 109.592 907.732 110.216C908.32 110.828 908.614 111.698 908.614 112.826V119H906.796V113.402C906.796 112.598 906.622 111.98 906.274 111.548C905.926 111.104 905.422 110.882 904.762 110.882C904.354 110.882 903.976 110.996 903.628 111.224C903.292 111.44 903.022 111.746 902.818 112.142C902.614 112.538 902.512 113 902.512 113.528V119H900.694V113.402C900.694 112.598 900.52 111.98 900.172 111.548C899.836 111.104 899.332 110.882 898.66 110.882C898.24 110.882 897.856 110.996 897.508 111.224C897.172 111.44 896.902 111.746 896.698 112.142C896.506 112.538 896.41 113 896.41 113.528V119ZM912.863 119H911.045V109.46H912.863V119ZM913.259 107.246C913.259 107.582 913.133 107.87 912.881 108.11C912.641 108.338 912.329 108.452 911.945 108.452C911.549 108.452 911.225 108.338 910.973 108.11C910.733 107.87 910.613 107.582 910.613 107.246C910.613 106.886 910.733 106.598 910.973 106.382C911.225 106.154 911.549 106.04 911.945 106.04C912.329 106.04 912.641 106.154 912.881 106.382C913.133 106.598 913.259 106.886 913.259 107.246ZM917.205 113.618V119H915.387V109.46H917.079V111.044C917.403 110.516 917.823 110.09 918.339 109.766C918.867 109.442 919.461 109.28 920.121 109.28C921.105 109.28 921.891 109.586 922.479 110.198C923.079 110.81 923.379 111.686 923.379 112.826V119H921.561V113.438C921.561 112.622 921.387 111.992 921.039 111.548C920.691 111.104 920.175 110.882 919.491 110.882C919.071 110.882 918.687 110.996 918.339 111.224C917.991 111.44 917.715 111.752 917.511 112.16C917.307 112.568 917.205 113.054 917.205 113.618ZM931.14 117.236V118.838C930.864 118.97 930.594 119.06 930.33 119.108C930.078 119.156 929.808 119.18 929.52 119.18C928.932 119.18 928.41 119.072 927.954 118.856C927.51 118.64 927.162 118.304 926.91 117.848C926.658 117.392 926.532 116.816 926.532 116.12V111.008H924.426V109.46H926.532V106.634H928.35V109.46H931.23V111.008H928.35V115.706C928.35 116.366 928.494 116.828 928.782 117.092C929.082 117.356 929.472 117.488 929.952 117.488C930.168 117.488 930.372 117.47 930.564 117.434C930.768 117.386 930.96 117.32 931.14 117.236ZM938.743 119V117.524C938.443 118.052 938.035 118.46 937.519 118.748C937.003 119.036 936.391 119.18 935.683 119.18C934.699 119.18 933.907 118.922 933.307 118.406C932.707 117.878 932.407 117.176 932.407 116.3C932.407 115.364 932.773 114.656 933.505 114.176C934.249 113.696 935.329 113.456 936.745 113.456C937.021 113.456 937.291 113.462 937.555 113.474C937.819 113.486 938.143 113.516 938.527 113.564V112.862C938.527 112.19 938.353 111.668 938.005 111.296C937.657 110.912 937.165 110.72 936.529 110.72C935.869 110.72 935.341 110.912 934.945 111.296C934.561 111.668 934.357 112.184 934.333 112.844H932.677C932.701 112.124 932.875 111.5 933.199 110.972C933.535 110.432 933.985 110.018 934.549 109.73C935.125 109.43 935.785 109.28 936.529 109.28C937.705 109.28 938.617 109.598 939.265 110.234C939.925 110.858 940.255 111.74 940.255 112.88V119H938.743ZM934.135 116.246C934.135 116.738 934.309 117.134 934.657 117.434C935.005 117.734 935.467 117.884 936.043 117.884C936.811 117.884 937.417 117.668 937.861 117.236C938.305 116.792 938.527 116.204 938.527 115.472V114.698C938.179 114.662 937.873 114.638 937.609 114.626C937.345 114.602 937.093 114.59 936.853 114.59C935.941 114.59 935.257 114.728 934.801 115.004C934.357 115.268 934.135 115.682 934.135 116.246ZM944.504 119H942.686V109.46H944.504V119ZM944.9 107.246C944.9 107.582 944.774 107.87 944.522 108.11C944.282 108.338 943.97 108.452 943.586 108.452C943.19 108.452 942.866 108.338 942.614 108.11C942.374 107.87 942.254 107.582 942.254 107.246C942.254 106.886 942.374 106.598 942.614 106.382C942.866 106.154 943.19 106.04 943.586 106.04C943.97 106.04 944.282 106.154 944.522 106.382C944.774 106.598 944.9 106.886 944.9 107.246ZM948.846 114.122V119H947.028V109.46H948.72V111.476C949.056 110.816 949.554 110.294 950.214 109.91C950.886 109.526 951.612 109.334 952.392 109.334V111.224C951.708 111.188 951.096 111.266 950.556 111.458C950.028 111.65 949.608 111.968 949.296 112.412C948.996 112.844 948.846 113.414 948.846 114.122ZM954.82 119H952.768L956.152 114.122L952.984 109.46H955.09L957.448 113.06L959.806 109.46H961.768L958.636 114.176L961.984 119H959.896L957.34 115.202L954.82 119ZM971.366 109.46L966.596 122.474H964.616L965.984 118.874L962.222 109.46H964.184L966.956 116.732L969.53 109.46H971.366ZM979.874 119H972.008V117.578L977.426 111.026H972.098V109.46H979.694V110.918L974.276 117.416H979.874V119Z" fill="#C5C5C5"/>
<path d="M58 89V84H53V79H58V74H53V69H58V64H63V69H68V64H73V69H78V74H73V79H78V84H73V89H68V84H63V89H58ZM63 79H68V74H63V79ZM98 89V79H88V64H93V74H98V64H103V74H108V79H103V89H98ZM118 89V84H123V69H118V64H128V84H133V89H118ZM158 74V69H143V64H158V69H163V74H158ZM148 79V74H158V79H148ZM143 89V79H148V84H163V89H143ZM178 89V84H173V69H178V64H188V69H193V84H188V89H178ZM178 83.8H188V69.2H178V83.8ZM208 89V84H203V69H208V64H218V69H223V84H218V89H208ZM208 83.8H218V69.2H208V83.8ZM238 89V84H233V69H238V64H248V69H253V84H248V89H238ZM238 83.8H248V69.2H238V83.8ZM263 89V84H268V69H263V64H273V84H278V89H263Z" fill="#EAEAEA"/>
</g>
<defs>
<filter id="filter0_b_342_2823" x="478" y="283" width="517.013" height="476.273" filterUnits="userSpaceOnUse" color-interpolation-filters="sRGB">
<feFlood flood-opacity="0" result="BackgroundImageFix"/>
<feGaussianBlur in="BackgroundImageFix" stdDeviation="75"/>
<feComposite in2="SourceAlpha" operator="in" result="effect1_backgroundBlur_342_2823"/>
<feBlend mode="normal" in="SourceGraphic" in2="effect1_backgroundBlur_342_2823" result="shape"/>
</filter>
<filter id="filter1_b_342_2823" x="497" y="200" width="524.118" height="423.709" filterUnits="userSpaceOnUse" color-interpolation-filters="sRGB">
<feFlood flood-opacity="0" result="BackgroundImageFix"/>
<feGaussianBlur in="BackgroundImageFix" stdDeviation="75"/>
<feComposite in2="SourceAlpha" operator="in" result="effect1_backgroundBlur_342_2823"/>
<feBlend mode="normal" in="SourceGraphic" in2="effect1_backgroundBlur_342_2823" result="shape"/>
</filter>
<linearGradient id="paint0_linear_342_2823" x1="1012" y1="0" x2="2.36138e-05" y2="600" gradientUnits="userSpaceOnUse">
<stop offset="0.185"/>
<stop offset="0.9999" stop-color="#222222"/>
</linearGradient>
<clipPath id="clip0_342_2823">
<rect width="1012" height="600" rx="32" fill="white"/>
</clipPath>
<clipPath id="clip1_342_2823">
<rect width="30" height="27" fill="white" transform="translate(840 99)"/>
</clipPath>
</defs>
</svg>
